<svg xmlns="http://www.w3.org/2000/svg" viewBox="0 0 800 400" width="800" height="400" role="img" aria-label="AI HARNESS">
  <defs>
    <linearGradient id="bg" x1="0" y1="0" x2="1" y2="1">
      <stop offset="0%" stop-color="#0f0f23"/><stop offset="55%" stop-color="#16213e"/><stop offset="100%" stop-color="#1a1a2e"/>
    </linearGradient>
    <radialGradient id="glow" cx="50%" cy="42%" r="62%">
      <stop offset="0%" stop-color="#00d4ff" stop-opacity="0.16"/><stop offset="100%" stop-color="#00d4ff" stop-opacity="0"/>
    </radialGradient>
    <pattern id="grid" width="40" height="40" patternUnits="userSpaceOnUse">
      <path d="M40 0H0V40" fill="none" stroke="#ffffff" stroke-opacity="0.035" stroke-width="1"/>
    </pattern>
  </defs>
  <rect width="800" height="400" fill="url(#bg)"/>
  <rect width="800" height="400" fill="url(#grid)"/>
  <rect width="800" height="400" fill="url(#glow)"/>
  <line x1="400" y1="158" x2="462.3" y2="-9.1" stroke="#00d4ff" stroke-opacity="0.10" stroke-width="1.2"/>
  <line x1="400" y1="158" x2="565.4" y2="44.4" stroke="#00d4ff" stroke-opacity="0.10" stroke-width="1.2"/>
  <line x1="400" y1="158" x2="615.9" y2="133.9" stroke="#00d4ff" stroke-opacity="0.10" stroke-width="1.2"/>
  <line x1="400" y1="158" x2="597.9" y2="231.1" stroke="#00d4ff" stroke-opacity="0.10" stroke-width="1.2"/>
  <line x1="400" y1="158" x2="517.1" y2="305.1" stroke="#00d4ff" stroke-opacity="0.10" stroke-width="1.2"/>
  <line x1="400" y1="158" x2="399.0" y2="332.4" stroke="#00d4ff" stroke-opacity="0.10" stroke-width="1.2"/>
  <line x1="400" y1="158" x2="281.3" y2="304.3" stroke="#00d4ff" stroke-opacity="0.10" stroke-width="1.2"/>
  <line x1="400" y1="158" x2="201.3" y2="229.7" stroke="#00d4ff" stroke-opacity="0.10" stroke-width="1.2"/>
  <line x1="400" y1="158" x2="184.4" y2="132.4" stroke="#00d4ff" stroke-opacity="0.10" stroke-width="1.2"/>
  <line x1="400" y1="158" x2="235.9" y2="43.2" stroke="#00d4ff" stroke-opacity="0.10" stroke-width="1.2"/>
  <line x1="400" y1="158" x2="339.5" y2="-9.6" stroke="#00d4ff" stroke-opacity="0.10" stroke-width="1.2"/>
  <line x1="400" y1="158" x2="400.0" y2="63.6" stroke="#00d4ff" stroke-opacity="0.28" stroke-width="1.8"/>
  <line x1="400" y1="158" x2="512.2" y2="128.8" stroke="#00d4ff" stroke-opacity="0.28" stroke-width="1.8"/>
  <line x1="400" y1="158" x2="469.4" y2="234.4" stroke="#00d4ff" stroke-opacity="0.28" stroke-width="1.8"/>
  <line x1="400" y1="158" x2="330.6" y2="234.4" stroke="#00d4ff" stroke-opacity="0.28" stroke-width="1.8"/>
  <line x1="400" y1="158" x2="287.8" y2="128.8" stroke="#00d4ff" stroke-opacity="0.28" stroke-width="1.8"/>
  <circle cx="462.3" cy="-9.1" r="6" fill="#0f0f23" stroke="#00d4ff" stroke-opacity="0.48" stroke-width="1.6"/>
  <circle cx="565.4" cy="44.4" r="6" fill="#0f0f23" stroke="#00d4ff" stroke-opacity="0.48" stroke-width="1.6"/>
  <circle cx="615.9" cy="133.9" r="6" fill="#0f0f23" stroke="#00d4ff" stroke-opacity="0.48" stroke-width="1.6"/>
  <circle cx="597.9" cy="231.1" r="6" fill="#0f0f23" stroke="#00d4ff" stroke-opacity="0.48" stroke-width="1.6"/>
  <circle cx="517.1" cy="305.1" r="6" fill="#0f0f23" stroke="#00d4ff" stroke-opacity="0.48" stroke-width="1.6"/>
  <circle cx="399.0" cy="332.4" r="6" fill="#0f0f23" stroke="#00d4ff" stroke-opacity="0.48" stroke-width="1.6"/>
  <circle cx="281.3" cy="304.3" r="6" fill="#0f0f23" stroke="#00d4ff" stroke-opacity="0.48" stroke-width="1.6"/>
  <circle cx="201.3" cy="229.7" r="6" fill="#0f0f23" stroke="#00d4ff" stroke-opacity="0.48" stroke-width="1.6"/>
  <circle cx="184.4" cy="132.4" r="6" fill="#0f0f23" stroke="#00d4ff" stroke-opacity="0.48" stroke-width="1.6"/>
  <circle cx="235.9" cy="43.2" r="6" fill="#0f0f23" stroke="#00d4ff" stroke-opacity="0.48" stroke-width="1.6"/>
  <circle cx="339.5" cy="-9.6" r="6" fill="#0f0f23" stroke="#00d4ff" stroke-opacity="0.48" stroke-width="1.6"/>
  <circle cx="400.0" cy="63.6" r="15" fill="#0f0f23" stroke="#00d4ff" stroke-opacity="0.95" stroke-width="2.2"/>
  <circle cx="400.0" cy="63.6" r="4.5" fill="#00d4ff" fill-opacity="0.9"/>
  <circle cx="512.2" cy="128.8" r="15" fill="#0f0f23" stroke="#00d4ff" stroke-opacity="0.95" stroke-width="2.2"/>
  <circle cx="512.2" cy="128.8" r="4.5" fill="#00d4ff" fill-opacity="0.9"/>
  <circle cx="469.4" cy="234.4" r="15" fill="#0f0f23" stroke="#00d4ff" stroke-opacity="0.95" stroke-width="2.2"/>
  <circle cx="469.4" cy="234.4" r="4.5" fill="#00d4ff" fill-opacity="0.9"/>
  <circle cx="330.6" cy="234.4" r="15" fill="#0f0f23" stroke="#00d4ff" stroke-opacity="0.95" stroke-width="2.2"/>
  <circle cx="330.6" cy="234.4" r="4.5" fill="#00d4ff" fill-opacity="0.9"/>
  <circle cx="287.8" cy="128.8" r="15" fill="#0f0f23" stroke="#00d4ff" stroke-opacity="0.95" stroke-width="2.2"/>
  <circle cx="287.8" cy="128.8" r="4.5" fill="#00d4ff" fill-opacity="0.9"/>
  <circle cx="400" cy="158" r="40" fill="#0f0f23" stroke="#00d4ff" stroke-width="2.6"/>
  <circle cx="400" cy="158" r="13" fill="#ff6b6b"/>
  <text x="400" y="288" text-anchor="middle" font-family="ui-monospace,Menlo,monospace" font-size="12.5" fill="#ffffff" fill-opacity="0.34" letter-spacing="1.2">IRON LAWS  ·  SCOPED RULES  ·  SUBAGENTS  ·  COMMANDS</text>

  <text x="40" y="352" font-family="ui-monospace,SFMono-Regular,Menlo,monospace" font-size="20" fill="#00d4ff" letter-spacing="2.5">AI HARNESS</text>
  <rect x="40" y="368" width="54" height="3" rx="1.5" fill="#ff6b6b"/>
</svg>
