<svg xmlns="http://www.w3.org/2000/svg" viewBox="0 0 800 400" width="800" height="400" role="img" aria-label="WORK LOGBOOK">
  <defs>
    <linearGradient id="bg" x1="0" y1="0" x2="1" y2="1">
      <stop offset="0%" stop-color="#0f0f23"/><stop offset="55%" stop-color="#16213e"/><stop offset="100%" stop-color="#1a1a2e"/>
    </linearGradient>
    <radialGradient id="glow" cx="50%" cy="42%" r="62%">
      <stop offset="0%" stop-color="#00d4ff" stop-opacity="0.16"/><stop offset="100%" stop-color="#00d4ff" stop-opacity="0"/>
    </radialGradient>
    <pattern id="grid" width="40" height="40" patternUnits="userSpaceOnUse">
      <path d="M40 0H0V40" fill="none" stroke="#ffffff" stroke-opacity="0.035" stroke-width="1"/>
    </pattern>
  </defs>
  <rect width="800" height="400" fill="url(#bg)"/>
  <rect width="800" height="400" fill="url(#grid)"/>
  <rect width="800" height="400" fill="url(#glow)"/>
  <line x1="96.0" y1="74.0" x2="96.0" y2="292.0" stroke="#00d4ff" stroke-opacity="0.28" stroke-width="2"/>
  <circle cx="96" cy="96" r="6.5" fill="#0f0f23" stroke="#00d4ff" stroke-width="2.2"/>
  <rect x="128" y="83" width="300" height="9" rx="4.5" fill="#ffffff" fill-opacity="0.16"/>
  <rect x="128" y="99" width="180" height="7" rx="3.5" fill="#00d4ff" fill-opacity="0.30"/>
  <circle cx="96" cy="146" r="6.5" fill="#0f0f23" stroke="#ff6b6b" stroke-width="2.2"/>
  <rect x="128" y="133" width="420" height="9" rx="4.5" fill="#ffffff" fill-opacity="0.16"/>
  <rect x="128" y="149" width="240" height="7" rx="3.5" fill="#ff6b6b" fill-opacity="0.30"/>
  <circle cx="96" cy="196" r="6.5" fill="#0f0f23" stroke="#00d4ff" stroke-width="2.2"/>
  <rect x="128" y="183" width="250" height="9" rx="4.5" fill="#ffffff" fill-opacity="0.16"/>
  <rect x="128" y="199" width="150" height="7" rx="3.5" fill="#00d4ff" fill-opacity="0.30"/>
  <circle cx="96" cy="246" r="6.5" fill="#0f0f23" stroke="#00d4ff" stroke-width="2.2"/>
  <rect x="128" y="233" width="380" height="9" rx="4.5" fill="#ffffff" fill-opacity="0.16"/>
  <rect x="128" y="249" width="210" height="7" rx="3.5" fill="#00d4ff" fill-opacity="0.30"/>
  <circle cx="96" cy="296" r="6.5" fill="#0f0f23" stroke="#00d4ff" stroke-width="2.2"/>
  <rect x="128" y="283" width="330" height="9" rx="4.5" fill="#ffffff" fill-opacity="0.16"/>
  <rect x="128" y="299" width="190" height="7" rx="3.5" fill="#00d4ff" fill-opacity="0.30"/>

  <text x="40" y="352" font-family="ui-monospace,SFMono-Regular,Menlo,monospace" font-size="20" fill="#00d4ff" letter-spacing="2.5">WORK LOGBOOK</text>
  <rect x="40" y="368" width="54" height="3" rx="1.5" fill="#ff6b6b"/>
</svg>
